<?xml version="1.0" encoding="utf-8"?>
<!-- Generator: Adobe Illustrator 18.0.0, SVG Export Plug-In . SVG Version: 6.00 Build 0)  -->
<!DOCTYPE svg PUBLIC "-//W3C//DTD SVG 1.1//EN" "http://www.w3.org/Graphics/SVG/1.1/DTD/svg11.dtd">
<svg version="1.1" id="图层_1" xmlns="http://www.w3.org/2000/svg" xmlns:xlink="http://www.w3.org/1999/xlink" x="0px" y="0px"
	 viewBox="0 0 549 304.3" enable-background="new 0 0 549 304.3" xml:space="preserve">
<g>
	<path fill="#7ECEEF" d="M465.5,226.3H403v0.6c-0.3,0-0.7-0.1-1-0.1c-5,0-9,4-9,9c0,5,4,9,9,9c1,0,2-0.2,2.9-0.5h20.6
		c16.3,0,29.5,13.2,29.5,29.5c0,16.3-13.2,29.5-29.5,29.5h-274c-16.3,0-29.5-13.2-29.5-29.5c0-16.3,13.2-29.5,29.5-29.5h32.6
		c0.9,0.3,1.9,0.5,2.9,0.5c5,0,9-4,9-9c0-5-4-9-9-9c-0.3,0-0.7,0-1,0.1v-0.6H44.5C19.9,226.3,0,206.4,0,181.8
		c0-24.6,19.9-44.5,44.5-44.5h421c24.6,0,44.5,19.9,44.5,44.5C510,206.4,490.1,226.3,465.5,226.3L465.5,226.3z"/>
	<path fill="#7ECEEF" d="M505.5,245.3h14c16.3,0,29.5,13.2,29.5,29.5c0,16.3-13.2,29.5-29.5,29.5h-14c-16.3,0-29.5-13.2-29.5-29.5
		C476,258.5,489.2,245.3,505.5,245.3L505.5,245.3z"/>
	<path fill="#C0E4F5" d="M54.9,209.4c4.1-8.3,12.6-14,22.4-14c9.8,0,18.3,5.7,22.4,14H54.9L54.9,209.4z"/>
	<path fill="#C0E4F5" d="M444,179.4c4.1-8.3,12.6-14,22.5-14c9.9,0,18.4,5.7,22.5,14H444L444,179.4z"/>
	<path fill="#C0E4F5" d="M100.3,209.4c4.1-8.3,12.6-14,22.5-14c9.9,0,18.4,5.7,22.5,14H100.3L100.3,209.4z"/>
	<g>
		<polygon fill="#FFFFFF" stroke="#3B3F51" stroke-width="2" stroke-miterlimit="10" points="218.4,263.5 215.3,280.2 185.5,285.9 
			191.2,235.3 205,235.6 203.3,266.3 		"/>
		<polygon fill="#FFFFFF" stroke="#3B3F51" stroke-width="2" stroke-miterlimit="10" points="275.4,242.4 254.4,286.2 238.1,285.6 
			226.1,244.4 239.5,240.6 250.7,264.9 257.5,240 		"/>
		<path fill="#FFFFFF" stroke="#3B3F51" stroke-width="2" stroke-miterlimit="10" d="M336.4,240.8c1.1,2.4,1.5,4.8,1.1,7.4
			c-0.4,2.6-1.8,6-4,10.3c-1.7,3.3-3.4,6.3-5.1,9l12.2-5.6l1.2,14.4l-31,15.6l-5-13.2c4.7-6.2,8.3-11.8,10.8-16.8
			c1.9-3.7,2.4-6.3,1.7-7.7c-0.8-1.7-2.3-2-4.6-0.9c-1.7,0.8-3.7,2.4-6.1,4.7l-7.5-13.1c3.9-3.1,7.7-5.5,11.4-7.3
			c5.9-2.8,11-4,15.5-3.4C331.4,234.7,334.6,236.9,336.4,240.8z"/>
		<path fill="#FFFFFF" stroke="#3B3F51" stroke-width="2" stroke-miterlimit="10" d="M381.5,245.6c2.8-2.4,6.9-5.2,12.1-8.2
			l-10.3-8.4c-1.4,0.7-2.6,1.4-3.7,2.1c-3.3,2-6.6,4.2-9.8,6.7c-12.2,9.1-17.9,18.4-17,27.8c0.5,4.8,2.6,8.6,6.5,11.5
			c3.9,2.9,8.5,4.1,13.8,3.6c6-0.6,11.3-3.2,15.7-7.8c4.4-4.6,6.4-9.5,5.9-14.8C394,251.5,389.6,247.4,381.5,245.6z M378.2,263.7
			c-0.9,0.9-1.9,1.5-3.1,1.6c-2.3,0.2-3.6-0.8-3.8-3.1c-0.1-1.4,0.4-2.9,1.6-4.6c0.2,0,0.4-0.1,0.7-0.1c0.3,0,0.5,0,0.6-0.1
			c3.2-0.3,5,0.8,5.2,3.3C379.4,261.7,379.1,262.7,378.2,263.7z"/>
	</g>
	<g>
		<polygon fill="#3B3F51" points="224.1,265.4 220.4,285 187.6,291.3 188,288.3 217.6,282.4 220.8,265.9 		"/>
		<polygon fill="#3B3F51" points="210.9,238.2 209.4,262.2 206.3,262.8 207.6,238.1 		"/>
		<polygon fill="#3B3F51" points="279.8,246 257.9,291.7 243.2,291.2 242.2,288.4 256,288.8 276.8,245.5 		"/>
		<polygon fill="#3B3F51" points="251,252.7 249.8,257.3 242.9,242.2 245.9,241.3 		"/>
		<polygon fill="#3B3F51" points="346.8,262.2 348.1,279.4 316.1,295.5 315.1,292.7 344.6,277.8 343.5,263.5 		"/>
		<path fill="#3B3F51" d="M315.5,255.3c0.1,1.8-0.8,3.9-2.7,6.4l-1.8-3.1c1.2-1.4,2.5-2.4,3.8-3.1
			C315.1,255.4,315.3,255.3,315.5,255.3z"/>
		<path fill="#3B3F51" d="M342.6,238.7c1.9,3.9,2,8.3,0.4,13.3c-0.6,2.1-1.7,4.4-3.1,7.1l-4.6,2.2c5.4-8.8,6.7-16.1,4-21.7
			c-1.9-3.9-5.1-6.4-9.7-7.6C335.7,231.1,340,233.3,342.6,238.7z"/>
		<path fill="#3B3F51" d="M400.8,258.5c0.6,6-1.6,11.8-6.5,17.5c-5.3,6.2-12.1,9.7-20.2,10.5c-4,0.4-7.3,0-9.8-1.2
			c-2.5-1.2-4.8-3.4-6.8-6.5c4.4,3.8,9.8,5.4,16.2,4.8c8.9-0.8,15.7-5.2,20.6-12.9c2.6-4.2,3.7-8.3,3.4-12.4
			c-0.3-3.6-1.8-6.8-4.3-9.6C397.8,250.6,400.3,253.9,400.8,258.5z"/>
		<path fill="#3B3F51" d="M396.1,243.1c-2,1-3.7,2.1-5.2,3.2c-1.4-0.9-2.6-1.5-3.7-1.8c2-1.6,4-2.8,6-3.7L396.1,243.1z"/>
	</g>
	<g>
		<rect x="174.8" y="282.6" fill="#7ECEEF" width="53.7" height="14.3"/>
		<rect x="230.4" y="279.7" fill="#7ECEEF" width="44.6" height="14.3"/>
		<rect x="300.1" y="282.6" fill="#7ECEEF" width="48.1" height="14.3"/>
		<rect x="352.7" y="274.5" fill="#7ECEEF" width="52.9" height="22.4"/>
	</g>
	<g>
		<g>
			<path fill="#7CD52E" d="M222.6,48.5c0,0,2.8,11.5,20.1,2.7C242.7,51.2,231.1,38,222.6,48.5L222.6,48.5z M218.1,56.5
				c0.1-4.7,2.1-11.1,11-15c15.4-6.9,9.3-15.2,9.3-15.2s4.4,8.2-9.8,13.2c8.5-6.9-1.4-18.6-1.4-18.6c-9.7,12.8-3.7,18.2-1.4,19.6
				c-8.6,3-11.2,8.6-11.9,12.8c-3.1-1.7-5.9-2.2-7.3-1.1l14.6,11.5C222,62,220.7,59.1,218.1,56.5L218.1,56.5z"/>
			<g>
				<path fill="#FFFFFF" stroke="#E2E3E5" stroke-miterlimit="10" d="M139.8,35.2c-16.9,7.6-27.3,19.2-27.3,19.2
					s16.8,111.2,118.2,92.9c33.8-6.1-57-124-57-124S158.3,26.9,139.8,35.2L139.8,35.2z"/>
				<path fill="#FFFFFF" stroke="#E2E3E5" stroke-miterlimit="10" d="M145.5,54.6c-28.1,15.6-32,29-32,29s86,100.2,117.1,63.8
					c22.3-26.1-44.3-104.1-44.3-104.1S174.9,38.4,145.5,54.6L145.5,54.6z"/>
				<path fill="#FFFFFF" stroke="#E2E3E5" stroke-miterlimit="10" d="M157.3,73.4c-27.8,16.2-31.9,28-31.9,28s74.1,82.4,105.3,46
					c22.3-26.1-32.4-87.3-32.4-87.3S183.8,58,157.3,73.4L157.3,73.4z"/>
				<path fill="#FFFFFF" stroke="#E2E3E5" stroke-miterlimit="10" d="M174.3,90.6c-30,16.8-34,29.8-34,29.8s59.3,63.4,90.5,27
					c22.3-26.1-24.6-68.7-24.6-68.7S201,75.6,174.3,90.6L174.3,90.6z"/>
				<path fill="#FFFFFF" stroke="#E2E3E5" stroke-miterlimit="10" d="M188,110.5c-24.2,15-34.8,26.8-34.8,26.8s46.4,46.5,77.5,10.1
					c22.3-26.1-2.6-52.3-2.6-52.3C228.1,95.1,210.6,96.5,188,110.5L188,110.5z"/>
				<path fill="#FFFFFF" stroke="#E2E3E5" stroke-miterlimit="10" d="M204.2,123.6c-20.2,15.4-29,29.2-29,29.2s24.3,31,55.5-5.4
					c22.3-26.1,4.6-38.8,4.6-38.8S225.1,107.7,204.2,123.6L204.2,123.6z"/>
			</g>
			<path fill="#3B3F51" d="M161.5,126.9c0,0-45.1,11.1-65.7,7.8c-20.6-3.3-10.8,35.8,20.2,44.4c31.2,8.6,41.1-0.5,45.8-10.1
				C166.4,159.4,161.5,126.9,161.5,126.9L161.5,126.9z"/>
			<path fill="#3B3F51" d="M288,112.3c47.3,38.4,74.2,68,104,43.6c15.3-12.5,19.5-25.4,10-26.3c-6.3-0.6-16.3-14.6-12-27
				c7.7,5,6.2,4.5,19,6c15,1.8,9.9,13.5,14,14c3.8,0.5,7.5-12.6,29-2c10.6,5.2,19,1,19,1s-11.5,29.1-38,20
				c-7.9-2.7-17.9,4.1-34.9,23c-36.7,40.8-178.7,119.1-262.1,12.7C77.7,103,112.8,50.6,112.8,50.6s20.6,48.6,57.2,74.8
				c32.2,23.1,57.7,6.8,57.7,6.8s-59.8-79-55.8-110.8C185.7,26.9,240.7,74,288,112.3L288,112.3z"/>
			<g>
				<path fill="#DEE5E9" d="M244.5,230.4c-44,0-80.4-17.9-108.1-53.3c-30-38.3-34.7-70.6-33.3-90.9c1.3-18.9,7.8-31.3,9.7-34.4
					c3,6.7,23.4,50.1,56.9,74.1c11.5,8.3,23.5,12.5,35.5,12.5c11.5,0,19.5-3.8,22-5.3l1,0.6c1.1,1.7,15,22.5,48.9,36.4
					c26.3,10.8,58,17.5,82.7,17.5c4.1,0,7.9-0.2,11.3-0.5C354.6,198.5,303.4,230.4,244.5,230.4z"/>
				<path fill="#E2E3E5" d="M112.7,52.7c4.1,9,24.3,50.2,56.7,73.4c11.6,8.3,23.7,12.6,35.8,12.6c11.3,0,19.2-3.7,22-5.2l0.7,0.4
					c1.5,2.3,15.6,22.7,49.1,36.4c26.3,10.8,58.1,17.5,82.9,17.5c3.3,0,6.5-0.1,9.5-0.4c-12.2,8.4-30.7,19.4-54.2,28.3
					c-24.4,9.3-48.2,14-70.6,14c-43.9,0-80.1-17.9-107.8-53.1c-13.2-16.8-22.6-33.9-28-50.8c-4.3-13.5-6.1-26.8-5.2-39.7
					C104.7,68.7,110.4,56.9,112.7,52.7 M112.8,50.6c0,0-35.1,52.4,23.2,126.8c30.9,39.5,69.9,53.5,108.5,53.5
					c49,0,97.5-22.6,128.6-44.7c-4,0.5-8.5,0.8-13.2,0.8c-23.4,0-54.9-6.1-82.5-17.4c-35.5-14.5-48.7-36.3-48.7-36.3l-1.4-0.8
					c-1.9,1.1-10.1,5.3-22,5.3c-9.7,0-21.9-2.8-35.3-12.4C133.4,99.1,112.8,50.6,112.8,50.6L112.8,50.6z"/>
			</g>
			<path fill="#DEE5E9" d="M228.6,133.7c0,0,1.4,46.4-6.2,65.8c-7.5,19.4,32.8,18.1,47.7-10.4c15-28.7,8.2-40.3-0.3-46.8
				C261.5,135.7,228.6,133.7,228.6,133.7L228.6,133.7z"/>
			<path fill="#3B3F51" d="M228,133.1c0,0,11,45.1,7.7,65.6c-3.3,20.6,35.9,10.9,44.4-20.1c8.6-31.2-0.4-41.1-10-45.8
				C260.6,128.2,228,133.1,228,133.1L228,133.1z"/>
			<g>
				<path fill="#FFFFFF" d="M224.4,76c7.7,0.5,13.6,7.2,13.1,14.9c-0.5,7.7-7.2,13.6-14.9,13.1c-7.7-0.5-13.6-7.2-13.1-14.9
					C210.1,81.3,216.7,75.4,224.4,76L224.4,76z"/>
				<path fill="#3D3D3D" d="M224.2,79.2c5.9,0.4,10.4,5.5,10,11.4c-0.4,5.9-5.5,10.4-11.4,10c-5.9-0.4-10.4-5.5-10-11.4
					C213.2,83.3,218.3,78.8,224.2,79.2L224.2,79.2z"/>
				<path d="M223.8,85.1c2.7,0.2,4.7,2.5,4.6,5.2c-0.2,2.7-2.5,4.7-5.2,4.6c-2.7-0.2-4.7-2.5-4.6-5.2
					C218.8,86.9,221.1,84.9,223.8,85.1L223.8,85.1z"/>
				<polygon fill="#FFFFFF" points="234.6,85.1 226.4,90.5 234.6,94.9 				"/>
				<path fill="#FFFFFF" d="M224,78.3c1.1,0,2,0.9,2,2s-0.9,2-2,2s-2-0.9-2-2S222.9,78.3,224,78.3L224,78.3z"/>
			</g>
			<g>
				<g>
					<defs>
						<path id="SVGID_1_" d="M374,189.4c-56.6,38.1-169.2,76-236.8-15.3C81,98.1,117.5,46.7,117.5,46.7s19.3,49.1,55.1,76.3
							c29.2,22.2,53.6,10.5,57,8.6l1.4,0.8c0,0,12.7,22.1,47.7,37.6C311.6,184.6,350.3,191.8,374,189.4L374,189.4z"/>
					</defs>
					<clipPath id="SVGID_2_">
						<use xlink:href="#SVGID_1_"  overflow="visible"/>
					</clipPath>
					
						<rect x="131" y="189.1" transform="matrix(-0.9996 -2.730069e-002 2.730069e-002 -0.9996 506.7013 448.1332)" clip-path="url(#SVGID_2_)" fill="none" width="250.9" height="63"/>
				</g>
			</g>
		</g>
		<polygon fill="#7ECEEF" points="142.3,189 376.2,189 374.8,229 275.4,231.8 236,235.3 212.8,230.9 174.4,220.3 149.5,205.4 		"/>
	</g>
	<path fill="#C0E4F5" d="M362.2,212.4c4.1-8.3,12.6-14,22.5-14c9.9,0,18.4,5.7,22.5,14H362.2L362.2,212.4z"/>
</g>
</svg>
