<?xml version="1.0" encoding="utf-8"?>
<!-- Generator: Adobe Illustrator 15.0.0, SVG Export Plug-In . SVG Version: 6.00 Build 0)  -->
<!DOCTYPE svg PUBLIC "-//W3C//DTD SVG 1.1//EN" "http://www.w3.org/Graphics/SVG/1.1/DTD/svg11.dtd">
<svg version="1.1" id="图层_1" xmlns="http://www.w3.org/2000/svg" xmlns:xlink="http://www.w3.org/1999/xlink" x="0px" y="0px"
	 width="472.701px" height="463.751px" viewBox="0 0 472.701 463.751" enable-background="new 0 0 472.701 463.751"
	 xml:space="preserve">
<g>
	<polygon fill="#EFEFEF" points="236.347,62.5 323.271,213.063 410.201,363.623 236.347,363.623 62.493,363.623 149.418,213.063 	
		"/>
	<g>
		<g>
			<line fill="#73C4FB" stroke="#73C4FB" stroke-miterlimit="10" x1="236.347" y1="62.5" x2="236.347" y2="456.251"/>
			<circle fill="#73C4FB" cx="236.347" cy="456.251" r="7.5"/>
		</g>
	</g>
	<g>
		<g>
			<line fill="#93CE16" stroke="#93CE16" stroke-miterlimit="10" x1="410.193" y1="363.623" x2="69.195" y2="166.747"/>
			<circle fill="#93CE16" cx="69.195" cy="166.747" r="7.5"/>
		</g>
	</g>
	<g>
		<g>
			<line fill="#CA3FFA" stroke="#CA3FFA" stroke-miterlimit="10" x1="62.5" y1="363.623" x2="403.498" y2="166.747"/>
			<circle fill="#CA3FFA" cx="403.498" cy="166.747" r="7.5"/>
		</g>
	</g>
	<circle fill="#EFEFEF" cx="62.5" cy="363.623" r="62.5"/>
	<circle fill="#FFFFFF" cx="62.5" cy="363.623" r="51.5"/>
	<circle fill="#FFFFFF" cx="236.347" cy="263.352" r="85"/>
	<path fill="#FFFFFF" d="M236.347,191.018c-39.949,0-72.333,32.384-72.333,72.334s32.385,72.334,72.333,72.334
		c39.948,0,72.333-32.384,72.333-72.334S276.295,191.018,236.347,191.018z M236.347,323.686c-33.321,0-60.333-27.012-60.333-60.334
		s27.012-60.334,60.333-60.334s60.333,27.012,60.333,60.334S269.668,323.686,236.347,323.686z"/>
	<circle fill="#EFEFEF" cx="236.347" cy="62.5" r="62.5"/>
	<circle fill="#EFEFEF" cx="410.201" cy="363.623" r="62.5"/>
	<circle fill="#FFFFFF" cx="410.193" cy="363.623" r="51.5"/>
	<circle fill="#FFFFFF" cx="236.347" cy="62.5" r="51.5"/>
	<path fill="#7CD52E" d="M238.655,272.293c0,0,14.034,12.684,29.106-14.548C267.762,257.745,240.562,250.653,238.655,272.293
		L238.655,272.293z M239.85,286.86c-4.075-6.349-7.119-16.595,1.088-29.816c14.283-23.012-1.41-28.552-1.41-28.552
		s13.156,6.95-1.146,26.313c5.037-16.779-18.583-23.529-18.583-23.529c-1.379,25.742,11.413,27.451,15.712,27.302
		c-8.779,11.771-7.167,21.567-4.243,27.762c-5.614,0.438-9.899,2.404-10.613,5.125l29.636,2.112
		C249.965,290.674,245.688,288.023,239.85,286.86L239.85,286.86z"/>
	<g>
		<defs>
			<circle id="SVGID_1_" cx="236.347" cy="263.352" r="85"/>
		</defs>
		<clipPath id="SVGID_2_">
			<use xlink:href="#SVGID_1_"  overflow="visible"/>
		</clipPath>
		<ellipse clip-path="url(#SVGID_2_)" fill="#3B3F51" cx="236.347" cy="477.139" rx="164.465" ry="192"/>
	</g>
	<path fill="#DED6E7" d="M294.291,246.533c0.814,2.823,1.439,5.738,1.846,8.737c4.463,33.022-18.688,63.408-51.709,67.871
		c-33.021,4.463-63.408-18.687-67.871-51.709c-4.463-33.022,18.688-63.408,51.709-67.871c8.479-1.146,16.781-0.46,24.52,1.735
		l3.27-11.547c-9.277-2.632-19.23-3.455-29.396-2.081c-39.589,5.352-67.344,41.78-61.993,81.371
		c5.351,39.59,41.781,67.345,81.37,61.994c39.589-5.352,67.344-41.781,61.993-81.371c-0.485-3.596-1.235-7.091-2.214-10.476
		L294.291,246.533z"/>
</g>
</svg>
