<?xml version="1.0" encoding="utf-8"?>
<!-- Generator: Adobe Illustrator 15.0.0, SVG Export Plug-In . SVG Version: 6.00 Build 0)  -->
<!DOCTYPE svg PUBLIC "-//W3C//DTD SVG 1.1//EN" "http://www.w3.org/Graphics/SVG/1.1/DTD/svg11.dtd">
<svg version="1.1" id="图层_1" xmlns="http://www.w3.org/2000/svg" xmlns:xlink="http://www.w3.org/1999/xlink" x="0px" y="0px"
	 width="370.989px" height="308.633px" viewBox="0 0 370.989 308.633" enable-background="new 0 0 370.989 308.633"
	 xml:space="preserve">
<g>
	<path fill="#7ECEEF" d="M297.519,305.641h-4.036c-12.415,0-22.479-9.629-22.479-21.5c0-11.879,10.063-21.504,22.479-21.504h4.036
		c12.415,0,22.482,9.625,22.482,21.504C320.001,296.012,309.934,305.641,297.519,305.641L297.519,305.641z M241.821,251.643h-8.734
		c-0.028,0-0.058-0.01-0.087-0.01c-2.211,0-4,1.793-4,4c0,2.211,1.789,4,4,4v0.043c13.388,0.75,24.005,11.412,24.005,24.457
		c0,13.529-11.422,24.5-25.514,24.5H122.508c-14.09,0-25.514-10.971-25.514-24.5c0-12.389,9.576-22.627,22.006-24.268v-0.232
		c2.211,0,4-1.789,4-4c0-2.207-1.789-4-4-4c-0.029,0-0.059,0.01-0.088,0.01H42.194C18.892,251.643,0,235.301,0,215.139
		s18.892-36.504,42.194-36.504h199.627c23.303,0,42.193,16.342,42.193,36.504S265.124,251.643,241.821,251.643L241.821,251.643z"/>
	<path fill="#C0E4F5" d="M209.002,214.129c4.055-8.277,12.513-13.99,22.318-13.99c9.809,0,18.267,5.713,22.318,13.99H209.002
		L209.002,214.129z"/>
	<path fill="#C0E4F5" d="M185.213,286.627c4.065-8.275,12.552-13.988,22.393-13.988s18.328,5.713,22.393,13.988H185.213
		L185.213,286.627z"/>
	<path fill="#C0E4F5" d="M141.211,286.627c4.068-8.275,12.555-13.988,22.396-13.988s18.325,5.713,22.393,13.988H141.211
		L141.211,286.627z"/>
	<g>
		<path fill="#FFDC81" d="M352.961,42.946c-0.072,12.908-10.597,23.312-23.505,23.239c-12.906-0.074-23.312-10.597-23.237-23.504
			c0.073-12.908,10.596-23.312,23.504-23.24C342.63,19.516,353.034,30.039,352.961,42.946"/>
		<path fill="#FFB120" d="M337.373,20.771c2.596,3.79,4.105,8.382,4.078,13.324c-0.073,12.907-10.598,23.313-23.505,23.239
			c-2.683-0.015-5.256-0.482-7.65-1.329c4.184,6.109,11.196,10.135,19.161,10.18c12.907,0.073,23.43-10.331,23.503-23.239
			C353.02,32.721,346.502,23.994,337.373,20.771"/>
		<path fill="#FFB120" d="M307.504,55.471c-0.782-1.379-1.44-2.788-1.97-4.231l-9.338,10.723l13.965-2.656
			C309.188,58.123,308.293,56.848,307.504,55.471"/>
		<path fill="#DA8F1A" d="M313.046,62.212l-2.721,13.958l10.769-9.28c-1.433-0.537-2.846-1.204-4.216-1.995
			C315.504,64.091,314.226,63.194,313.046,62.212"/>
		<path fill="#DA8F1A" d="M352.027,29.927c0.785,1.378,1.442,2.793,1.969,4.232l9.337-10.723l-13.968,2.651
			C350.344,27.272,351.233,28.548,352.027,29.927"/>
		<path fill="#DA8F1A" d="M346.484,23.187l2.723-13.958l-10.771,9.28c1.439,0.536,2.853,1.205,4.224,1.994
			C344.028,21.3,345.305,22.198,346.484,23.187"/>
		<path fill="#FFB120" d="M335.876,17.879L329.735,0l-6.236,17.847c2.008-0.343,4.079-0.516,6.189-0.507
			C331.79,17.343,333.863,17.531,335.876,17.879"/>
		<path fill="#FFB120" d="M317,20.439c1.369-0.787,2.784-1.442,4.229-1.972l-10.725-9.343l2.65,13.968
			C314.339,22.121,315.617,21.229,317,20.439"/>
		<path fill="#FFB120" d="M307.573,29.806c0.806-1.366,1.696-2.643,2.68-3.82l-13.951-2.725l9.281,10.769
			C306.114,32.595,306.776,31.179,307.573,29.806"/>
		<path fill="#DA8F1A" d="M342.536,64.958c-1.376,0.788-2.792,1.443-4.235,1.979l10.729,9.336l-2.65-13.967
			C345.192,63.281,343.914,64.169,342.536,64.958"/>
		<path fill="#DA8F1A" d="M351.957,55.593c-0.798,1.371-1.693,2.642-2.677,3.826l13.954,2.719l-9.278-10.763
			C353.419,52.804,352.757,54.216,351.957,55.593"/>
		<path fill="#DA8F1A" d="M355.484,42.952c-0.011,1.88-0.176,3.731-0.488,5.529l15.993-5.482l-15.965-5.582
			C355.332,39.216,355.485,41.065,355.484,42.952"/>
		<path fill="#FFB120" d="M304.213,38.361l-16.026,5.398l15.928,5.664c-0.291-1.8-0.435-3.653-0.423-5.533
			C303.71,42.005,303.885,40.158,304.213,38.361"/>
		<path fill="#DA8F1A" d="M329.443,68.225c-2.11-0.014-4.18-0.21-6.183-0.577l6.032,17.917l6.344-17.81
			C333.619,68.08,331.545,68.245,329.443,68.225"/>
	</g>
	<g>
		<defs>
			<rect id="SVGID_1_" x="35.696" y="87.738" width="173.306" height="132"/>
		</defs>
		<clipPath id="SVGID_2_">
			<use xlink:href="#SVGID_1_"  overflow="visible"/>
		</clipPath>
		<g clip-path="url(#SVGID_2_)">
			<path fill="#3B3F51" d="M123,170.725c1.316-15.479-4.474-16.87-19-20.023c-15.107-3.283-25-35.043-25-35.043
				c0.001,0,9.887,4.145,31.999,4.007c28.806-0.184,22.241,13.252,28.001,12.014c8.213-1.767,2.392-11.798,30-2.002
				c22.443,7.962,33,2.002,33,2.002s-11.527,33.315-40,29.034c-30.041-4.518-29.002,11.92-29.002,11.92s-3.916,41.139-12.998,62.166
				c-11.189,25.912-26.811,19.203-38,14.018c-15.554-7.207-37-27.031-37-27.031S119.443,212.551,123,170.725L123,170.725z"/>
			<path fill="#45495E" d="M155.201,125.802c-5.629,24.346-25.511,29.752-21.201,24.899c3.7-4.171,3.916-13.092,3.578-19.078
				c0.379,0.148,0.836,0.181,1.422,0.056C145.418,130.295,143.265,123.869,155.201,125.802L155.201,125.802z"/>
		</g>
	</g>
</g>
</svg>
