<?xml version="1.0" encoding="utf-8"?>
<!-- Generator: Adobe Illustrator 15.0.0, SVG Export Plug-In . SVG Version: 6.00 Build 0)  -->
<!DOCTYPE svg PUBLIC "-//W3C//DTD SVG 1.1//EN" "http://www.w3.org/Graphics/SVG/1.1/DTD/svg11.dtd">
<svg version="1.1" id="图层_1" xmlns="http://www.w3.org/2000/svg" xmlns:xlink="http://www.w3.org/1999/xlink" x="0px" y="0px"
	 width="141.402px" height="104.153px" viewBox="0 0 141.402 104.153" enable-background="new 0 0 141.402 104.153"
	 xml:space="preserve">
<g>
	<g>
		<polygon fill="#FFFFFF" stroke="#EFEFEF" stroke-miterlimit="10" points="140.201,33.442 70.701,103.443 1.201,33.442 
			140.201,33.442 		"/>
		<g>
			<g>
				<g>
					<path fill="#3B3F51" d="M100.885,68.708c-0.473,0.121-0.957,0.234-1.437,0.356c-0.271,0.135-0.688,0.135-0.957,0.24
						c-1.502,0.359-3.021,0.682-4.56,0.98c-0.857,0.163-1.718,0.328-2.589,0.473c-0.176,0.016-0.176,0.09-0.463,0.074
						c-6.14,0.999-12.511,1.523-19.097,1.523c-8.895,0-17.059-0.93-23.862-2.112c-0.217-0.042-0.437-0.077-0.648-0.119
						c-0.738-0.126-1.46-0.265-2.163-0.4c-0.859-0.162-1.689-0.333-2.492-0.502c-0.787-0.169-1.548-0.337-2.274-0.505
						c-0.011,0-0.022,0-0.027-0.006c-0.569-0.13-1.121-0.263-1.651-0.387c-5.258-1.273-8.799-2.453-9.932-2.85l-2.779,16.769
						c13.956,5.407,28.729,8.144,43.901,8.144c24.235,0,41.892-7.094,44.339-8.124l-3.275-16.782
						C107.671,66.728,104.316,67.797,100.885,68.708z"/>
					<path fill="#3B3F51" d="M117.208,62.001c-2.581,1.556-5.123,3.146-5.123,3.146l3.48,16.51c4.107-0.983,7.445-3.149,7.445-3.149
						s4.027-3.034,4.496-13.814C122.294,62.4,117.208,62.001,117.208,62.001z"/>
					<path fill="#3B3F51" d="M17.99,58.98c0,0-0.24,7.26,1.454,11.201c0,0-5.62,5.429-6.112,6.764c0,0,5.725,3.77,11.252,4.82
						l2.787-16.291C27.37,65.475,25.868,64.793,17.99,58.98z"/>
				</g>
				<g opacity="0.5">
					<path fill="#3B3F51" d="M19.139,70.479c-1.167,1.141-5.384,5.317-5.808,6.467c0,0,5.725,3.77,11.252,4.82l1.448-8.468
						C23.695,72.427,21.395,71.488,19.139,70.479z"/>
					<path fill="#3B3F51" d="M113.561,72.156l2.005,9.501c4.107-0.983,7.445-3.149,7.445-3.149s3.824-2.91,4.447-13.063
						C123.023,67.967,118.382,70.211,113.561,72.156z"/>
					<path fill="#3B3F51" d="M68.327,80.866c-14.452,0-28.269-2.511-40.971-7.079l-1.401,8.456
						c13.956,5.407,28.729,8.144,43.901,8.144c24.235,0,41.892-7.094,44.339-8.124l-1.875-9.604
						C98.799,77.943,83.933,80.866,68.327,80.866z"/>
				</g>
			</g>
			<g>
				<path fill="#FFFFFF" d="M120.675,66.039c2.313,0.151,4.064,2.15,3.912,4.465c-0.152,2.316-2.15,4.068-4.463,3.918
					c-2.313-0.151-4.061-2.15-3.908-4.467C116.369,67.641,118.363,65.887,120.675,66.039L120.675,66.039z"/>
				<path d="M120.552,67.937c1.264,0.083,2.223,1.177,2.141,2.444c-0.084,1.268-1.178,2.227-2.443,2.145
					c-1.266-0.084-2.225-1.179-2.141-2.445C118.193,68.813,119.285,67.854,120.552,67.937L120.552,67.937z"/>
				<polygon fill="#FFFFFF" points="123.722,68.784 121.269,70.386 123.726,71.721 123.722,68.784 				"/>
			</g>
			<g>
				<g>
					<path fill="#FFFFFF" d="M42.167,83.494c-0.037-0.067,0.214-0.661,0.346-1.134c0.132-0.475,0.225-1.238,0.418-1.452
						c0.35-0.389,1.621-0.712,2.326-1.076c1.144-0.592,2.147-1.177,3.021-1.741c0.697-0.45,1.289-0.877,1.762-1.28
						c0.277-0.236,0.469-0.45,0.576-0.623c0.075-0.122,0.125-0.25,0.15-0.388c0.032-0.181,0.018-0.348-0.043-0.497
						s-0.175-0.286-0.341-0.414c-0.167-0.127-0.374-0.245-0.624-0.351c-0.25-0.105-0.542-0.188-0.874-0.254
						c-0.456-0.09-0.942-0.149-1.462-0.182c-0.52-0.032-1.237-0.04-2.157-0.032c0.225-0.507,0.337-0.758,0.559-1.266
						c0.119-0.252,0.35-1.314,0.598-1.474c0.594-0.383,3.315,0.282,4.777,0.545c0.667,0.12,1.296,0.289,1.889,0.506
						s1.113,0.504,1.561,0.859c0.447,0.355,0.769,0.738,0.965,1.151c0.195,0.413,0.268,0.843,0.21,1.282
						c-0.038,0.289-0.111,0.571-0.222,0.842c-0.107,0.261-0.286,0.563-0.537,0.897c-0.313,0.418-0.695,0.822-1.135,1.207
						c-0.656,0.574-1.412,1.161-2.274,1.737c-0.821,0.549-1.814,1.146-2.987,1.777c0.46,0.09,0.69,0.133,1.151,0.218
						c0.272,0.048,0.813,0.139,1.624,0.256c0.811,0.118,1.377,0.188,1.695,0.222c0.318,0.033,1.133,0.021,1.179,0.079
						c0.045,0.057-0.146,0.672-0.253,1.117s-0.228,1.538-0.374,1.639c-0.472,0.327-3.654-0.563-5.596-0.926
						C45.751,84.303,42.316,83.764,42.167,83.494z"/>
					<path fill="#FFFFFF" d="M64.003,73.383c1.035,0.059,1.958,0.296,2.783,0.72s1.469,1.114,1.936,2.087s0.705,2.115,0.699,3.428
						c-0.005,1.026-0.159,2.045-0.479,3.051c-0.32,1.005-0.759,1.811-1.316,2.411c-0.557,0.601-1.295,1.059-2.209,1.36
						c-0.915,0.302-1.891,0.421-2.919,0.356c-0.875-0.055-1.688-0.239-2.432-0.549c-0.744-0.311-1.376-0.774-1.891-1.387
						s-0.839-1.313-0.979-2.098s-0.157-1.609-0.059-2.472c0.119-1.046,0.388-2.055,0.796-3.031s0.904-1.756,1.489-2.342
						c0.584-0.587,1.275-0.998,2.078-1.242C62.305,73.432,63.136,73.334,64.003,73.383z M63.775,76.19
						c-0.31-0.018-0.592,0.052-0.847,0.212c-0.311,0.196-0.565,0.479-0.765,0.837c-0.242,0.433-0.443,0.938-0.596,1.51
						c-0.168,0.629-0.286,1.327-0.345,2.092c-0.052,0.671-0.026,1.229,0.081,1.681c0.106,0.45,0.294,0.806,0.563,1.066
						s0.595,0.404,0.976,0.428c0.212,0.013,0.422-0.02,0.628-0.09s0.426-0.226,0.66-0.461c0.234-0.236,0.445-0.58,0.633-1.035
						s0.332-0.933,0.428-1.433s0.155-1.01,0.177-1.53c0.044-1.077-0.083-1.882-0.371-2.422S64.303,76.221,63.775,76.19z"/>
					<path fill="#FFFFFF" d="M75.529,86.647c-0.179-0.176,0.09-2.576,0.118-4.772c0.028-2.197-0.008-4.719-0.008-4.719
						c-0.032-0.017-0.471,0.316-0.697,0.47s-1.488,1.072-1.488,1.072c-0.048-0.025,0.04-1.174,0.049-1.901s-0.083-1.463-0.005-1.605
						c0.09-0.164,0.696-0.427,1.104-0.697s0.65-0.445,0.739-0.517s0.259-0.281,0.404-0.339c0.355-0.14,1.236-0.057,1.984-0.112
						c0.708-0.053,1.433-0.116,2.172-0.198c0.003,0.852,0.001,1.279,0,2.131c0.09,2.819,0.128,4.228,0.195,7.048
						c0.05,1.034,0.074,1.552,0.122,2.586c0.043,0.493,0.066,0.739,0.109,1.231c-0.614,0.041-1.36,0.098-2.241,0.158
						C77.061,86.553,75.618,86.734,75.529,86.647z"/>
					<path fill="#FFFFFF" d="M85.375,85.775c-0.059-0.05-0.037-0.696-0.083-1.185c-0.047-0.49-0.231-1.231-0.128-1.501
						c0.187-0.488,1.251-1.243,1.777-1.836c0.853-0.961,1.582-1.865,2.195-2.706c0.488-0.669,0.888-1.281,1.186-1.827
						c0.174-0.318,0.277-0.586,0.315-0.786c0.027-0.141,0.029-0.282,0.003-0.419c-0.035-0.181-0.107-0.331-0.218-0.449
						s-0.267-0.203-0.466-0.263c-0.2-0.06-0.438-0.094-0.708-0.103s-0.575,0.018-0.908,0.075c-0.457,0.078-0.932,0.194-1.427,0.35
						c-0.496,0.155-1.167,0.403-2.021,0.739c0.028-0.553,0.04-0.829,0.065-1.382c0.021-0.278-0.142-1.35,0.032-1.587
						c0.416-0.567,3.189-0.92,4.649-1.197c0.667-0.126,1.313-0.195,1.944-0.205c0.633-0.01,1.225,0.072,1.771,0.244
						c0.546,0.172,0.986,0.413,1.318,0.729c0.331,0.316,0.552,0.69,0.655,1.121c0.068,0.284,0.102,0.574,0.095,0.866
						c-0.007,0.281-0.068,0.628-0.184,1.03c-0.144,0.503-0.356,1.017-0.631,1.534c-0.409,0.771-0.909,1.592-1.51,2.438
						c-0.571,0.806-1.285,1.717-2.154,2.727c0.462-0.081,0.69-0.123,1.152-0.209c0.271-0.053,0.811-0.158,1.612-0.339
						s1.354-0.32,1.664-0.402c0.311-0.083,1.071-0.388,1.136-0.349c0.063,0.037,0.103,0.679,0.161,1.134s0.337,1.52,0.237,1.666
						c-0.326,0.477-3.626,0.782-5.569,1.138C88.997,85.251,85.609,85.973,85.375,85.775z"/>
				</g>
			</g>
		</g>
	</g>
	<path fill="#7DCEEE" d="M82.281,0H59.144c-2.986,0-5.432,2.317-5.432,5.155v51.572c0,2.838,2.446,5.264,5.432,5.264h23.137
		c2.986,0,5.432-2.426,5.432-5.264V5.155C87.712,2.317,85.267,0,82.281,0 M67.838,4.023h6.513c0.6,0,1.088,0.457,1.088,1.029
		c0,0.566-0.488,1.03-1.088,1.03h-6.513c-0.599,0-1.088-0.464-1.088-1.03C66.75,4.48,67.24,4.023,67.838,4.023 M71.095,59.822
		c-1.801,0-3.262-1.384-3.262-3.096s1.461-3.09,3.262-3.09s3.256,1.378,3.256,3.09S72.896,59.822,71.095,59.822 M85.105,50.85
		H56.324V9.899h28.781V50.85L85.105,50.85z"/>
	<path fill="#FFFFFF" d="M67.838,4.023h6.513c0.6,0,1.088,0.457,1.088,1.029c0,0.566-0.488,1.03-1.088,1.03h-6.513
		c-0.599,0-1.088-0.464-1.088-1.03C66.75,4.48,67.24,4.023,67.838,4.023"/>
	<path fill="#FFFFFF" d="M71.095,59.822c-1.801,0-3.262-1.384-3.262-3.096s1.461-3.09,3.262-3.09s3.256,1.378,3.256,3.09
		S72.896,59.822,71.095,59.822"/>
	<polygon fill="#FFFFFF" points="85.105,50.85 56.324,50.85 56.324,9.899 85.105,9.899 85.105,50.85 	"/>
	<path opacity="0.15" fill="#61B8DC" d="M70.701,0H59.144c-2.986,0-5.432,2.317-5.432,5.155v51.572c0,2.838,2.446,5.264,5.432,5.264
		h11.558V0z"/>
</g>
</svg>
