<?xml version="1.0" encoding="utf-8"?>
<!-- Generator: Adobe Illustrator 15.0.0, SVG Export Plug-In . SVG Version: 6.00 Build 0)  -->
<!DOCTYPE svg PUBLIC "-//W3C//DTD SVG 1.1//EN" "http://www.w3.org/Graphics/SVG/1.1/DTD/svg11.dtd">
<svg version="1.1" id="图层_1" xmlns="http://www.w3.org/2000/svg" xmlns:xlink="http://www.w3.org/1999/xlink" x="0px" y="0px"
	 width="139px" height="90.898px" viewBox="0 0 139 90.898" enable-background="new 0 0 139 90.898" xml:space="preserve">
<g>
	<g>
		<polygon fill="#FFFFFF" stroke="#EFEFEF" stroke-miterlimit="10" points="139,20.896 69.5,90.898 0,20.896 139,20.896 		"/>
		<g>
			<g>
				<g>
					<path fill="#3B3F51" d="M99.685,56.163c-0.473,0.121-0.957,0.234-1.437,0.355c-0.271,0.136-0.688,0.136-0.957,0.24
						c-1.502,0.359-3.021,0.682-4.56,0.98c-0.857,0.164-1.718,0.329-2.589,0.473c-0.176,0.016-0.176,0.09-0.463,0.074
						c-6.14,1-12.511,1.524-19.098,1.524c-8.895,0-17.059-0.931-23.861-2.112c-0.218-0.042-0.438-0.078-0.648-0.119
						c-0.738-0.127-1.46-0.265-2.163-0.4c-0.858-0.162-1.689-0.334-2.491-0.502c-0.787-0.17-1.548-0.337-2.274-0.506
						c-0.012,0-0.022,0-0.027-0.006c-0.569-0.129-1.12-0.262-1.651-0.387c-5.258-1.272-8.799-2.452-9.932-2.85l-2.779,16.77
						c13.956,5.406,28.729,8.144,43.901,8.144c24.235,0,41.892-7.095,44.339-8.124l-3.275-16.783
						C106.471,54.183,103.115,55.251,99.685,56.163z"/>
					<path fill="#3B3F51" d="M116.008,49.456c-2.581,1.556-5.123,3.146-5.123,3.146l3.48,16.51c4.107-0.984,7.445-3.15,7.445-3.15
						s4.027-3.033,4.496-13.813C121.094,49.854,116.008,49.456,116.008,49.456z"/>
					<path fill="#3B3F51" d="M16.789,46.435c0,0-0.24,7.26,1.454,11.201c0,0-5.62,5.43-6.112,6.764c0,0,5.725,3.771,11.252,4.82
						l2.786-16.291C26.169,52.929,24.667,52.247,16.789,46.435z"/>
				</g>
				<g opacity="0.5">
					<path fill="#3B3F51" d="M17.938,57.933c-1.167,1.142-5.384,5.318-5.808,6.467c0,0,5.725,3.771,11.252,4.82l1.448-8.467
						C22.494,59.882,20.193,58.942,17.938,57.933z"/>
					<path fill="#3B3F51" d="M112.36,59.61l2.005,9.502c4.107-0.984,7.445-3.15,7.445-3.15s3.824-2.909,4.447-13.063
						C121.822,55.421,117.182,57.665,112.36,59.61z"/>
					<path fill="#3B3F51" d="M67.126,68.321c-14.452,0-28.269-2.512-40.971-7.08l-1.401,8.457
						c13.956,5.406,28.729,8.144,43.901,8.144c24.235,0,41.892-7.095,44.339-8.124l-1.875-9.605
						C97.599,65.397,82.732,68.321,67.126,68.321z"/>
				</g>
			</g>
			<g>
				<path fill="#FFFFFF" d="M119.475,53.493c2.313,0.152,4.064,2.151,3.912,4.466c-0.152,2.315-2.15,4.068-4.463,3.917
					c-2.313-0.15-4.061-2.15-3.908-4.467C115.168,55.095,117.162,53.342,119.475,53.493L119.475,53.493z"/>
				<path d="M119.352,55.392c1.264,0.082,2.223,1.176,2.141,2.443c-0.084,1.268-1.178,2.228-2.443,2.145s-2.225-1.178-2.141-2.445
					C116.992,56.268,118.084,55.308,119.352,55.392L119.352,55.392z"/>
				<polygon fill="#FFFFFF" points="122.521,56.239 120.068,57.841 122.525,59.176 122.521,56.239 				"/>
			</g>
			<g>
				<g>
					<path fill="#FFFFFF" d="M41.161,70.948c-0.037-0.067,0.213-0.661,0.344-1.134c0.133-0.475,0.227-1.237,0.42-1.452
						c0.349-0.389,1.607-0.712,2.309-1.077c1.136-0.594,2.135-1.179,3.003-1.744c0.691-0.451,1.279-0.884,1.75-1.287
						c0.275-0.236,0.467-0.446,0.573-0.62c0.074-0.122,0.125-0.252,0.149-0.39c0.032-0.181,0.019-0.347-0.042-0.496
						s-0.173-0.287-0.337-0.414c-0.165-0.126-0.372-0.242-0.62-0.347c-0.247-0.105-0.536-0.19-0.866-0.256
						c-0.451-0.09-0.935-0.148-1.45-0.18s-1.229-0.039-2.142-0.03c0.224-0.507,0.335-0.758,0.557-1.266
						c0.118-0.252,0.349-1.313,0.597-1.473c0.589-0.38,3.289,0.277,4.739,0.539c0.661,0.119,1.286,0.287,1.874,0.504
						s1.104,0.503,1.547,0.858s0.763,0.737,0.957,1.15c0.192,0.413,0.262,0.844,0.204,1.283c-0.038,0.289-0.112,0.57-0.223,0.841
						c-0.106,0.261-0.285,0.562-0.534,0.896c-0.311,0.418-0.689,0.822-1.127,1.208c-0.651,0.574-1.405,1.161-2.262,1.738
						c-0.815,0.549-1.802,1.147-2.966,1.78c0.456,0.089,0.685,0.132,1.142,0.216c0.271,0.048,0.807,0.138,1.611,0.255
						s1.366,0.187,1.682,0.22s1.124,0.021,1.17,0.08c0.045,0.057-0.146,0.669-0.254,1.114s-0.228,1.542-0.372,1.643
						c-0.469,0.324-3.624-0.563-5.551-0.924C44.719,71.75,41.31,71.217,41.161,70.948z"/>
					<path fill="#FFFFFF" d="M62.848,60.827c1.026,0.06,1.941,0.298,2.76,0.724s1.454,1.12,1.916,2.093s0.697,2.113,0.688,3.426
						c-0.007,1.026-0.162,2.045-0.48,3.051c-0.319,1.005-0.757,1.81-1.312,2.409c-0.554,0.6-1.286,1.056-2.193,1.355
						c-0.908,0.3-1.878,0.419-2.897,0.354c-0.868-0.056-1.674-0.239-2.411-0.55s-1.365-0.775-1.874-1.388s-0.829-1.313-0.967-2.098
						s-0.153-1.608-0.054-2.471c0.12-1.046,0.389-2.057,0.795-3.032s0.899-1.753,1.481-2.339c0.58-0.586,1.268-0.999,2.064-1.243
						C61.163,60.874,61.988,60.777,62.848,60.827z M62.616,63.635c-0.307-0.018-0.587,0.054-0.841,0.214
						c-0.309,0.196-0.563,0.479-0.761,0.837c-0.24,0.433-0.442,0.936-0.596,1.507c-0.168,0.629-0.284,1.326-0.345,2.091
						c-0.053,0.671-0.027,1.231,0.077,1.683c0.105,0.45,0.291,0.808,0.557,1.068c0.267,0.261,0.589,0.401,0.967,0.425
						c0.211,0.013,0.419-0.017,0.623-0.087s0.424-0.225,0.656-0.46c0.233-0.236,0.442-0.579,0.631-1.034
						c0.188-0.455,0.329-0.933,0.427-1.433c0.097-0.5,0.155-1.012,0.178-1.532c0.046-1.077-0.078-1.882-0.363-2.422
						S63.141,63.665,62.616,63.635z"/>
					<path fill="#FFFFFF" d="M74.258,74.113c-0.179-0.176,0.095-2.576,0.127-4.772c0.032-2.197,0.001-4.717,0.001-4.717
						c-0.031-0.017-0.467,0.314-0.692,0.467s-1.479,1.065-1.479,1.065c-0.047-0.025,0.043-1.17,0.053-1.897s-0.08-1.462-0.002-1.605
						c0.089-0.164,0.689-0.426,1.094-0.695s0.647-0.445,0.735-0.517c0.089-0.071,0.26-0.28,0.404-0.337
						c0.352-0.139,1.222-0.052,1.964-0.104c0.703-0.05,1.423-0.113,2.156-0.193c0.001,0.852,0,1.277-0.002,2.129
						c0.085,2.819,0.121,4.231,0.183,7.052c0.047,1.034,0.07,1.551,0.115,2.585c0.042,0.493,0.063,0.74,0.105,1.233
						c-0.609,0.039-1.35,0.093-2.224,0.15C75.778,74.023,74.346,74.2,74.258,74.113z"/>
					<path fill="#FFFFFF" d="M88.295,59.216c1.015-0.189,1.966-0.177,2.866,0.039s1.689,0.736,2.374,1.569s1.188,1.884,1.494,3.16
						c0.239,0.998,0.33,2.023,0.26,3.077c-0.071,1.053-0.305,1.938-0.703,2.654c-0.397,0.716-1.003,1.335-1.816,1.845
						c-0.814,0.51-1.73,0.858-2.74,1.04c-0.859,0.154-1.691,0.17-2.482,0.045c-0.792-0.125-1.514-0.428-2.155-0.9
						s-1.119-1.075-1.44-1.805s-0.536-1.523-0.646-2.385c-0.134-1.044-0.111-2.09,0.05-3.135s0.455-1.919,0.88-2.627
						c0.424-0.708,0.996-1.273,1.714-1.701C86.667,59.664,87.445,59.374,88.295,59.216z M88.744,61.997
						c-0.304,0.057-0.561,0.192-0.77,0.409c-0.254,0.265-0.436,0.599-0.543,0.994c-0.131,0.478-0.203,1.016-0.215,1.607
						c-0.013,0.65,0.039,1.356,0.164,2.113c0.109,0.664,0.266,1.201,0.476,1.613c0.21,0.411,0.478,0.713,0.799,0.902
						s0.669,0.249,1.043,0.182c0.208-0.038,0.405-0.117,0.588-0.234s0.359-0.318,0.529-0.603c0.171-0.285,0.293-0.67,0.367-1.156
						s0.098-0.987,0.072-1.496s-0.088-1.017-0.191-1.526c-0.214-1.057-0.529-1.811-0.937-2.267S89.263,61.9,88.744,61.997z"/>
				</g>
			</g>
		</g>
	</g>
	<path fill="#7DCEEE" d="M102.723,20.474c-2.598-10.768-6.205-21.98-19.168-20.107c-5,0.724-8.791,3.672-14.369,3.698
		c-4.663,0.02-8.31-2.922-12.593-3.64C43.649-1.738,40.566,4.489,36.778,16.087c-2.14,6.556-8.981,29.169-1.274,34.564
		c7.808,5.461,16.381-9.639,22.271-11.946c5.088-1.995,16.022-1.848,21.034-0.345c6.793,2.044,13.461,15.055,21.125,13.323
		C110.428,49.312,104.297,26.994,102.723,20.474z M57.014,21.623l-2.364,0.002v2.385c0,0.878-0.706,1.589-1.575,1.589h-1.578
		c-0.12,0-0.232-0.013-0.344-0.04c-0.022-0.005-0.047-0.013-0.071-0.021c-0.094-0.026-0.184-0.063-0.271-0.103
		c-0.008-0.005-0.018-0.008-0.025-0.013c-0.09-0.044-0.175-0.103-0.256-0.168c-0.013-0.008-0.021-0.019-0.034-0.026
		c-0.349-0.293-0.575-0.728-0.575-1.218v-2.388h-0.253h-2.111c-0.118,0-0.233-0.013-0.346-0.04
		c-0.028-0.005-0.051-0.019-0.081-0.026c-0.083-0.023-0.165-0.053-0.245-0.089c-0.018-0.008-0.037-0.021-0.058-0.032
		c-0.086-0.047-0.169-0.1-0.244-0.161c-0.009-0.008-0.017-0.016-0.024-0.021c-0.08-0.066-0.153-0.14-0.219-0.221
		c-0.004-0.006-0.005-0.006-0.012-0.011c-0.216-0.271-0.347-0.611-0.347-0.988v-1.589c-0.004-0.88,0.707-1.592,1.575-1.592h2.364
		l0.003-2.385c-0.003-0.88,0.704-1.592,1.575-1.589h1.577c0.489-0.003,0.922,0.229,1.213,0.582c0.005,0.008,0.013,0.016,0.018,0.024
		c0.061,0.076,0.11,0.158,0.158,0.245c0.011,0.018,0.021,0.04,0.032,0.061c0.036,0.079,0.062,0.161,0.089,0.248
		c0.009,0.026,0.021,0.056,0.026,0.082c0.026,0.114,0.039,0.227,0.039,0.348v2.129v0.253l2.364,0.002
		c0.489,0,0.928,0.232,1.216,0.585c0.005,0.008,0.01,0.014,0.018,0.021c0.068,0.087,0.13,0.179,0.176,0.279
		c0.003,0.002,0,0.005,0.003,0.008c0.045,0.089,0.08,0.184,0.106,0.284c0.004,0.021,0.016,0.04,0.019,0.061
		c0.022,0.113,0.039,0.229,0.039,0.35l0.003,1.592C58.593,20.911,57.886,21.623,57.014,21.623z M66.213,30.714h-2.744
		c-0.57,0-1.031-0.463-1.031-1.039c0-0.573,0.465-1.036,1.031-1.036h2.742c0.568,0,1.029,0.463,1.029,1.039
		C67.24,30.248,66.779,30.714,66.213,30.714z M74.4,30.711l-2.748,0.003c-0.566,0-1.027-0.463-1.027-1.036
		c0-0.576,0.461-1.039,1.029-1.039l2.746-0.003c0.57,0.003,1.029,0.466,1.027,1.04C75.43,30.248,74.971,30.714,74.4,30.711z
		 M85.596,11.286c1.168-1.172,3.061-1.175,4.223-0.01c1.164,1.165,1.158,3.063-0.01,4.235c-1.168,1.171-3.057,1.174-4.223,0.009
		C84.422,14.353,84.428,12.457,85.596,11.286z M79.891,21.23c-1.166-1.165-1.16-3.06,0.01-4.232
		c1.168-1.171,3.057-1.178,4.221-0.009c1.162,1.165,1.16,3.06-0.01,4.232C82.943,22.392,81.051,22.398,79.891,21.23z M89.582,26.708
		c-1.168,1.171-3.057,1.175-4.221,0.009c-1.162-1.168-1.158-3.063,0.01-4.234c1.168-1.172,3.061-1.175,4.221-0.01
		C90.758,23.641,90.752,25.536,89.582,26.708z M95.279,20.995c-1.168,1.172-3.057,1.178-4.223,0.01
		c-1.162-1.165-1.158-3.061,0.01-4.232s3.061-1.178,4.223-0.009C96.453,17.928,96.451,19.824,95.279,20.995z"/>
	<g>
		<path fill="#FFFFFF" d="M58.551,18.091c-0.003-0.021-0.015-0.04-0.019-0.061c-0.026-0.1-0.062-0.195-0.106-0.284
			c-0.003-0.003,0-0.006-0.003-0.008c-0.046-0.1-0.107-0.192-0.176-0.279c-0.008-0.008-0.013-0.013-0.018-0.021
			c-0.288-0.353-0.727-0.585-1.216-0.585l-2.364-0.002v-0.253v-2.129c0-0.121-0.013-0.234-0.039-0.348
			c-0.005-0.026-0.018-0.055-0.026-0.082c-0.027-0.087-0.053-0.168-0.089-0.248c-0.012-0.021-0.021-0.042-0.032-0.061
			c-0.048-0.087-0.098-0.169-0.158-0.245c-0.005-0.008-0.013-0.016-0.018-0.024c-0.291-0.353-0.724-0.585-1.213-0.582h-1.577
			c-0.871-0.003-1.578,0.708-1.575,1.589l-0.003,2.385h-2.364c-0.868,0-1.579,0.712-1.575,1.592v1.589
			c0,0.377,0.131,0.717,0.347,0.988c0.007,0.005,0.008,0.005,0.012,0.011c0.065,0.081,0.139,0.155,0.219,0.221
			c0.008,0.005,0.016,0.013,0.024,0.021c0.075,0.061,0.158,0.113,0.244,0.161c0.021,0.01,0.04,0.023,0.058,0.032
			c0.08,0.037,0.162,0.066,0.245,0.089c0.03,0.007,0.053,0.021,0.081,0.026c0.112,0.026,0.228,0.04,0.346,0.04h2.111h0.253v2.388
			c0,0.49,0.227,0.925,0.575,1.218c0.013,0.008,0.021,0.018,0.034,0.026c0.081,0.065,0.166,0.124,0.256,0.168
			c0.008,0.005,0.018,0.008,0.025,0.013c0.088,0.04,0.178,0.077,0.271,0.103c0.024,0.007,0.049,0.016,0.071,0.021
			c0.111,0.026,0.224,0.04,0.344,0.04h1.578c0.869,0,1.575-0.711,1.575-1.589v-2.385l2.364-0.002c0.872,0,1.579-0.712,1.579-1.589
			l-0.003-1.592C58.59,18.321,58.573,18.205,58.551,18.091z"/>
		<path fill="#FFFFFF" d="M66.211,28.639h-2.742c-0.566,0-1.031,0.463-1.031,1.036c0,0.576,0.461,1.039,1.031,1.039h2.744
			c0.566,0,1.027-0.466,1.027-1.036C67.24,29.102,66.779,28.639,66.211,28.639z"/>
		<path fill="#FFFFFF" d="M74.4,28.635l-2.746,0.003c-0.568,0-1.029,0.463-1.029,1.039c0,0.573,0.461,1.036,1.027,1.036l2.748-0.003
			c0.57,0.003,1.029-0.463,1.027-1.036C75.43,29.102,74.971,28.639,74.4,28.635z"/>
		<path fill="#FFFFFF" d="M89.809,15.512c1.168-1.172,1.174-3.07,0.01-4.235c-1.162-1.165-3.055-1.162-4.223,0.01
			c-1.168,1.171-1.174,3.067-0.01,4.235C86.752,16.686,88.641,16.683,89.809,15.512z"/>
		<path fill="#FFFFFF" d="M84.121,16.989c-1.164-1.168-3.053-1.162-4.221,0.009c-1.17,1.172-1.176,3.067-0.01,4.232
			c1.16,1.168,3.053,1.162,4.221-0.009C85.281,20.049,85.283,18.153,84.121,16.989z"/>
		<path fill="#FFFFFF" d="M85.371,22.482c-1.168,1.171-1.172,3.066-0.01,4.234c1.164,1.166,3.053,1.162,4.221-0.009
			c1.17-1.171,1.176-3.067,0.01-4.235C88.432,21.308,86.539,21.311,85.371,22.482z"/>
		<path fill="#FFFFFF" d="M95.289,16.764c-1.162-1.168-3.055-1.162-4.223,0.009s-1.172,3.067-0.01,4.232
			c1.166,1.168,3.055,1.162,4.223-0.01C96.451,19.824,96.453,17.928,95.289,16.764z"/>
	</g>
	<path opacity="0.15" fill="#61B8DC" d="M56.593,0.425C43.649-1.738,40.566,4.489,36.778,16.087
		c-2.14,6.556-8.981,29.169-1.274,34.564c7.808,5.461,16.381-9.639,22.271-11.946c2.879-1.129,7.629-1.571,12.119-1.471V4.038
		c-0.234,0.012-0.468,0.025-0.708,0.026C64.522,4.084,60.876,1.143,56.593,0.425z"/>
</g>
</svg>
