<?xml version="1.0" encoding="utf-8"?>
<!-- Generator: Adobe Illustrator 15.0.0, SVG Export Plug-In . SVG Version: 6.00 Build 0)  -->
<!DOCTYPE svg PUBLIC "-//W3C//DTD SVG 1.1//EN" "http://www.w3.org/Graphics/SVG/1.1/DTD/svg11.dtd">
<svg version="1.1" id="图层_1" xmlns="http://www.w3.org/2000/svg" xmlns:xlink="http://www.w3.org/1999/xlink" x="0px" y="0px"
	 width="141.402px" height="112.719px" viewBox="0 0 141.402 112.719" enable-background="new 0 0 141.402 112.719"
	 xml:space="preserve">
<g>
	<g>
		<polygon fill="#FFFFFF" stroke="#EFEFEF" stroke-miterlimit="10" points="140.201,42.007 70.701,112.01 1.201,42.007 
			140.201,42.007 		"/>
	</g>
	<path fill="#7DCEEE" d="M86.376,22.682c-3.479,0-6.305-2.823-6.305-6.301c0-3.471,2.826-6.297,6.305-6.297
		c3.475,0,6.305,2.826,6.305,6.297C92.681,19.859,89.851,22.682,86.376,22.682L86.376,22.682z M86.376,12.819
		c-1.972,0-3.569,1.587-3.569,3.562c0,1.972,1.598,3.57,3.569,3.57c1.973,0,3.57-1.598,3.57-3.57
		C89.947,14.406,88.349,12.819,86.376,12.819L86.376,12.819z M56.024,21.87c-3.479,0-6.305-2.823-6.305-6.293
		c0-3.479,2.826-6.305,6.305-6.305c3.475,0,6.301,2.826,6.301,6.305C62.325,19.047,59.499,21.87,56.024,21.87L56.024,21.87z
		 M56.024,12.006c-1.976,0-3.574,1.59-3.574,3.57c0,1.964,1.598,3.563,3.574,3.563c1.968,0,3.57-1.598,3.57-3.563
		C59.595,13.597,57.993,12.006,56.024,12.006L56.024,12.006z M115.107,32.442v23.354l-24.023-2.578v7.769H71.604v22.587h14.76v5.313
		h-14.76h-6.491H49.899v-5.313h15.214V60.986H47.584V28.636c-4.291-2.78-7.144-7.579-7.144-13.06C40.44,6.968,47.413,0,56.024,0
		c7.59,0,13.898,5.427,15.283,12.613c1.694-6.77,7.77-11.8,15.069-11.8c8.602,0,15.58,6.968,15.58,15.568
		c0,6.949-4.584,12.766-10.873,14.769v6.453L115.107,32.442L115.107,32.442z M56.024,2.734c-7.086,0-12.853,5.759-12.853,12.842
		c0,7.075,5.767,12.839,12.853,12.839c7.083,0,12.846-5.764,12.846-12.839C68.871,8.494,63.107,2.734,56.024,2.734L56.024,2.734z
		 M71.09,19.337c-0.954,3.821-3.28,7.094-6.473,9.21h12.14C73.89,26.279,71.81,23.067,71.09,19.337L71.09,19.337z M99.222,16.381
		c0-7.075-5.758-12.838-12.846-12.838c-7.086,0-12.85,5.764-12.85,12.838c0,5.71,3.769,10.5,8.926,12.167h7.846
		C95.458,26.881,99.222,22.091,99.222,16.381L99.222,16.381z"/>
	<g>
		<g>
			<g>
				<path fill="#3B3F51" d="M100.885,77.273c-0.473,0.121-0.957,0.234-1.437,0.356c-0.271,0.136-0.688,0.136-0.957,0.24
					c-1.502,0.358-3.021,0.682-4.56,0.98c-0.857,0.163-1.718,0.329-2.589,0.472c-0.176,0.017-0.176,0.091-0.463,0.074
					c-6.14,1-12.511,1.525-19.097,1.525c-8.895,0-17.059-0.931-23.862-2.113c-0.217-0.041-0.437-0.077-0.648-0.119
					c-0.738-0.127-1.46-0.264-2.163-0.4c-0.859-0.162-1.689-0.333-2.492-0.502c-0.787-0.169-1.548-0.336-2.274-0.506
					c-0.011,0-0.022,0-0.027-0.006c-0.569-0.129-1.121-0.262-1.651-0.386c-5.258-1.272-8.799-2.452-9.932-2.851l-2.779,16.77
					c13.956,5.406,28.729,8.145,43.901,8.145c24.235,0,41.892-7.096,44.339-8.125l-3.275-16.783
					C107.671,75.293,104.316,76.361,100.885,77.273z"/>
				<path fill="#3B3F51" d="M117.208,70.566c-2.581,1.557-5.123,3.146-5.123,3.146l3.48,16.51c4.107-0.983,7.445-3.15,7.445-3.15
					s4.027-3.033,4.496-13.813C122.294,70.966,117.208,70.566,117.208,70.566z"/>
				<path fill="#3B3F51" d="M17.99,67.545c0,0-0.24,7.261,1.454,11.202c0,0-5.62,5.429-6.112,6.763c0,0,5.725,3.771,11.252,4.82
					l2.787-16.291C27.37,74.039,25.868,73.358,17.99,67.545z"/>
			</g>
			<g opacity="0.5">
				<path fill="#3B3F51" d="M19.139,79.044c-1.167,1.142-5.384,5.317-5.808,6.466c0,0,5.725,3.771,11.252,4.82l1.448-8.467
					C23.695,80.992,21.395,80.054,19.139,79.044z"/>
				<path fill="#3B3F51" d="M113.561,80.722l2.005,9.501c4.107-0.983,7.445-3.15,7.445-3.15s3.824-2.908,4.447-13.062
					C123.023,76.531,118.382,78.776,113.561,80.722z"/>
				<path fill="#3B3F51" d="M68.327,89.432c-14.452,0-28.269-2.512-40.971-7.08l-1.401,8.457
					c13.956,5.406,28.729,8.145,43.901,8.145c24.235,0,41.892-7.096,44.339-8.125l-1.875-9.605
					C98.799,86.509,83.933,89.432,68.327,89.432z"/>
			</g>
		</g>
		<g>
			<path fill="#FFFFFF" d="M120.675,74.604c2.313,0.151,4.064,2.151,3.912,4.466c-0.152,2.315-2.15,4.068-4.463,3.916
				c-2.313-0.15-4.061-2.15-3.908-4.466C116.369,76.206,118.363,74.453,120.675,74.604L120.675,74.604z"/>
			<path d="M120.552,76.502c1.264,0.083,2.223,1.177,2.141,2.444c-0.084,1.267-1.178,2.228-2.443,2.145s-2.225-1.179-2.141-2.445
				S119.285,76.418,120.552,76.502L120.552,76.502z"/>
			<polygon fill="#FFFFFF" points="123.722,77.35 121.269,78.951 123.726,80.287 123.722,77.35 			"/>
		</g>
		<g>
			<g>
				<path fill="#FFFFFF" d="M42.343,92.058c-0.037-0.067,0.214-0.661,0.345-1.134c0.132-0.475,0.225-1.235,0.417-1.45
					c0.349-0.389,1.608-0.715,2.31-1.08c1.137-0.594,2.136-1.18,3.004-1.745c0.692-0.451,1.281-0.879,1.752-1.282
					c0.275-0.236,0.467-0.447,0.573-0.621c0.075-0.122,0.126-0.252,0.15-0.39c0.032-0.181,0.018-0.349-0.043-0.498
					s-0.173-0.286-0.337-0.413c-0.165-0.127-0.372-0.241-0.62-0.347c-0.249-0.104-0.537-0.19-0.867-0.256
					c-0.452-0.09-0.935-0.148-1.451-0.18c-0.516-0.031-1.229-0.038-2.144-0.029c0.224-0.507,0.335-0.759,0.557-1.267
					c0.119-0.252,0.349-1.313,0.596-1.473c0.59-0.381,3.292,0.278,4.744,0.54c0.662,0.119,1.286,0.285,1.875,0.502
					s1.104,0.502,1.549,0.857c0.443,0.355,0.764,0.741,0.958,1.154c0.193,0.413,0.262,0.841,0.204,1.28
					c-0.038,0.289-0.111,0.572-0.222,0.843c-0.106,0.261-0.285,0.563-0.534,0.897c-0.311,0.418-0.691,0.819-1.128,1.205
					c-0.652,0.574-1.405,1.163-2.262,1.74c-0.816,0.549-1.802,1.146-2.967,1.779c0.457,0.089,0.685,0.132,1.142,0.217
					c0.271,0.048,0.809,0.137,1.613,0.254c0.805,0.117,1.366,0.186,1.681,0.219c0.316,0.033,1.125,0.022,1.171,0.081
					c0.044,0.057-0.146,0.668-0.253,1.113s-0.229,1.541-0.374,1.642c-0.469,0.324-3.627-0.56-5.556-0.921
					C45.901,92.861,42.492,92.326,42.343,92.058z"/>
				<path fill="#FFFFFF" d="M64.044,81.939c1.027,0.06,1.943,0.297,2.762,0.722s1.457,1.12,1.919,2.093s0.696,2.114,0.688,3.427
					c-0.006,1.026-0.16,2.042-0.479,3.048c-0.319,1.005-0.757,1.813-1.312,2.412c-0.554,0.6-1.287,1.055-2.195,1.355
					c-0.909,0.3-1.88,0.419-2.9,0.354c-0.869-0.056-1.677-0.239-2.414-0.55c-0.738-0.311-1.365-0.775-1.874-1.388
					s-0.832-1.314-0.969-2.1s-0.152-1.606-0.053-2.469c0.12-1.046,0.388-2.057,0.794-3.032s0.9-1.754,1.482-2.34
					c0.581-0.586,1.269-0.997,2.067-1.241C62.359,81.986,63.184,81.89,64.044,81.939z M63.813,84.745
					c-0.308-0.018-0.588,0.054-0.842,0.214c-0.309,0.196-0.563,0.479-0.761,0.837c-0.24,0.433-0.442,0.937-0.595,1.508
					c-0.168,0.629-0.286,1.326-0.346,2.091c-0.053,0.671-0.027,1.232,0.078,1.684c0.105,0.45,0.29,0.805,0.556,1.065
					s0.591,0.403,0.969,0.427c0.211,0.014,0.418-0.019,0.623-0.089s0.424-0.223,0.656-0.458c0.233-0.236,0.443-0.581,0.631-1.036
					s0.329-0.933,0.426-1.433s0.157-1.011,0.179-1.531c0.046-1.077-0.079-1.882-0.364-2.422S64.337,84.775,63.813,84.745z"/>
				<path fill="#FFFFFF" d="M76.813,81.9c1.026-0.065,1.966,0.063,2.831,0.386s1.583,0.933,2.16,1.843s0.95,2.016,1.101,3.319
					c0.117,1.02,0.083,2.048-0.113,3.085c-0.196,1.036-0.531,1.888-1.011,2.55c-0.479,0.662-1.153,1.204-2.02,1.611
					c-0.867,0.407-1.818,0.644-2.839,0.702c-0.869,0.05-1.691-0.035-2.46-0.255c-0.77-0.22-1.447-0.606-2.026-1.152
					s-0.981-1.201-1.212-1.964s-0.346-1.579-0.352-2.447c-0.007-1.053,0.139-2.088,0.424-3.105s0.679-1.85,1.185-2.502
					c0.505-0.652,1.141-1.142,1.903-1.48C75.148,82.151,75.953,81.955,76.813,81.9z M76.921,84.714
					c-0.308,0.02-0.576,0.124-0.809,0.313c-0.283,0.231-0.501,0.546-0.655,0.925c-0.187,0.459-0.325,0.982-0.408,1.568
					c-0.091,0.645-0.124,1.353-0.091,2.118c0.028,0.672,0.119,1.224,0.277,1.658c0.158,0.434,0.389,0.767,0.685,0.993
					s0.634,0.328,1.013,0.306c0.211-0.013,0.413-0.068,0.607-0.163s0.395-0.272,0.597-0.534c0.203-0.263,0.369-0.629,0.501-1.103
					s0.217-0.968,0.253-1.476s0.033-1.021-0.008-1.54c-0.085-1.074-0.307-1.86-0.655-2.362S77.446,84.681,76.921,84.714z"/>
				<path fill="#FFFFFF" d="M87.554,94.06c0.528-0.758,1.012-1.494,1.453-2.201s0.871-1.458,1.284-2.252
					c0.414-0.794,0.713-1.449,0.904-1.949c0.192-0.501,0.33-0.966,0.422-1.396c0.093-0.431,0.141-0.78,0.147-1.04
					s-0.013-0.51-0.062-0.753c-0.065-0.329-0.187-0.61-0.358-0.845c-0.171-0.234-0.392-0.394-0.662-0.477
					c-0.271-0.084-0.555-0.096-0.852-0.041c-0.506,0.094-0.904,0.324-1.205,0.701c-0.301,0.376-0.414,0.823-0.327,1.343
					c0.05,0.3,0.165,0.546,0.341,0.738s0.41,0.322,0.703,0.39c0.293,0.068,0.58,0.078,0.86,0.027c0.174-0.031,0.711-0.24,0.711-0.24
					c0.046,0.048-0.955,2.577-1.481,3.033c-0.108,0.094-0.421,0.119-0.585,0.146c-0.452,0.075-0.957,0.074-1.511-0.001
					s-1.053-0.245-1.502-0.506c-0.448-0.26-0.813-0.626-1.087-1.099c-0.275-0.472-0.445-0.988-0.517-1.541
					c-0.096-0.742-0.016-1.46,0.236-2.158c0.252-0.699,0.649-1.303,1.187-1.808s1.14-0.896,1.812-1.185
					c0.671-0.288,1.408-0.506,2.215-0.658c0.743-0.14,1.477-0.188,2.204-0.14c0.727,0.048,1.354,0.218,1.882,0.513
					c0.53,0.295,0.971,0.693,1.32,1.194c0.349,0.5,0.588,1.005,0.711,1.517c0.087,0.363,0.14,0.783,0.155,1.256
					s-0.02,0.982-0.105,1.528c-0.087,0.548-0.238,1.183-0.459,1.905c-0.222,0.723-0.514,1.479-0.877,2.265s-0.827,1.711-1.405,2.775
					C90.893,93.539,89.782,93.729,87.554,94.06z"/>
			</g>
		</g>
	</g>
</g>
</svg>
