<?xml version="1.0" encoding="utf-8"?>
<!-- Generator: Adobe Illustrator 15.0.0, SVG Export Plug-In . SVG Version: 6.00 Build 0)  -->
<!DOCTYPE svg PUBLIC "-//W3C//DTD SVG 1.1//EN" "http://www.w3.org/Graphics/SVG/1.1/DTD/svg11.dtd">
<svg version="1.1" id="图层_1" xmlns="http://www.w3.org/2000/svg" xmlns:xlink="http://www.w3.org/1999/xlink" x="0px" y="0px"
	 width="339.302px" height="530.5px" viewBox="0 0 339.302 530.5" enable-background="new 0 0 339.302 530.5" xml:space="preserve">
<g>
	<g>
		<path fill="#64E528" d="M168.217,56.761l0.265-0.214c0.827-0.668,1.954-1.007,3.349-1.007c2.549,0,5.769,1.124,9.103,3.17
			c1.54-7.15,6.479-16.39,21.071-20.927c-2.032-1.527-5.059-4.604-5.761-9.717c-0.93-6.772,2.475-14.88,10.119-24.098l0.227-0.274
			l0.217,0.283c0.088,0.115,8.799,11.66,7.325,22.187c-0.528,3.776-2.293,6.994-5.252,9.583c8.479-2.805,13.889-6.751,16.09-11.74
			c2.232-5.061,0.22-9.394,0.199-9.437l0.491-0.28c0.128,0.19,3.103,4.716,1.259,10.642c-1.901,6.112-8.129,11.287-18.508,15.382
			c-15.395,6.073-19.331,16.771-19.908,24.723c4.458,4.984,6.29,9.992,4.668,12.779l-0.172,0.295L168.217,56.761z M212.387,63.101
			c-13.725,0-16.108-11.165-16.131-11.278l-0.027-0.138l0.094-0.105c3.856-4.335,8.266-6.534,13.104-6.534
			c11.356,0,21.411,12.186,21.833,12.705l0.232,0.285l-0.329,0.159C223.986,61.45,217.669,63.101,212.387,63.101z"/>
		<path fill="#FFFFFF" d="M206.58,4.15c0,0,16.084,21.05,0.948,32.323c24.805-7.536,17.896-22.024,17.896-22.024
			s10.013,14.898-17.118,25.603c-15.592,6.15-19.539,16.979-20.095,25.087c4.3,4.773,6.296,9.817,4.714,12.536l-24.266-20.906
			c0.792-0.639,1.88-0.944,3.171-0.944c2.55,0,5.892,1.19,9.298,3.342c1.447-7.236,6.354-16.764,21.506-21.278
			C198.815,35.246,188.851,25.528,206.58,4.15 M209.427,45.329c11.507,0,21.617,12.607,21.619,12.607
			c-7.845,3.56-13.938,4.882-18.659,4.882c-13.651,0-15.853-11.05-15.853-11.05C200.73,47.05,205.173,45.329,209.427,45.329
			 M206.599,3.24l-0.455,0.548c-7.697,9.281-11.123,17.463-10.181,24.317c0.668,4.863,3.397,7.919,5.442,9.571
			c-14.066,4.55-19.034,13.505-20.663,20.588c-3.258-1.943-6.399-3.007-8.912-3.007c-1.461,0-2.647,0.36-3.527,1.07l-0.528,0.427
			l0.515,0.444l24.266,20.906l0.517,0.445l0.344-0.59c1.675-2.878-0.139-7.972-4.621-13.02c0.602-7.858,4.539-18.373,19.72-24.361
			c10.464-4.128,16.747-9.364,18.675-15.562c1.884-6.054-1.163-10.69-1.294-10.884l-0.982,0.561c0.02,0.041,1.974,4.291-0.213,9.222
			c-2.064,4.656-6.993,8.396-14.667,11.137c2.432-2.466,3.901-5.432,4.38-8.848c1.49-10.644-7.019-21.923-7.382-22.398L206.599,3.24
			L206.599,3.24z M209.427,44.762c-4.924,0-9.404,2.23-13.316,6.629l-0.188,0.211l0.056,0.277
			c0.022,0.115,2.454,11.506,16.408,11.506c5.323,0,11.68-1.66,18.894-4.933l2.388-1.083h-2.356
			C229.871,55.662,220.249,44.762,209.427,44.762L209.427,44.762z"/>
	</g>
	<path fill-rule="evenodd" clip-rule="evenodd" fill="#3B3F51" d="M51.483,170.041c0,0-30.254,32.534-47.898,38.847
		c-16.348,5.845,25.98,48.576,70.96,12.061C98.692,201.348,51.483,170.041,51.483,170.041L51.483,170.041z"/>
	<path fill-rule="evenodd" clip-rule="evenodd" fill="#3B3F51" d="M111.676,0.641c20.292,4.735,75.796,59.803,133.396,113.675
		c105.35,98.576,109.383,179.622,74.793,233.35c-64.455,100.161-80.402,107.002-53.162,131.008
		c22.002,19.409-12.219,51.826-12.219,51.826s0.438-15.716-13.1-19.367c-19.181-5.167-25.669-47.789-25.669-47.789
		s-19.078,8.783-36.312-4.072c-25.696-19.15-34.024-17.239-34.024-17.239s13.688-32.115,51.004-20.791
		c37.313,11.32,27.956,33.386,48.51,10.131c67.967-76.985-67.619-66.681-179.054-169.07
		C-34.848,169.788,56.861-12.156,111.676,0.641L111.676,0.641z"/>
	<path fill-rule="evenodd" clip-rule="evenodd" fill="#E2E8EC" d="M260.481,385.242c-17.027-33.184-112.411-47.379-194.643-122.94
		C-27.156,176.852,43.964,15.138,98.566,1.002c1.472,40.145,10.384,141.283,62.075,193.723
		C254.223,289.63,263.399,352.443,260.481,385.242L260.481,385.242z"/>
	<path opacity="0.7" fill-rule="evenodd" clip-rule="evenodd" fill="#B9C6CE" d="M157.712,183.466c0,0-17.144,48.168-32.971,62.87
		c-14.666,13.619,49.917,39.599,80.87-19.488C222.228,195.13,157.712,183.466,157.712,183.466L157.712,183.466z"/>
	<path fill-rule="evenodd" clip-rule="evenodd" fill="#3B3F51" d="M150.174,175.12c0,0-17.036,49.979-33.105,65.383
		c-14.901,14.277,51.685,40.124,82.774-21.328C216.522,186.193,150.174,175.12,150.174,175.12L150.174,175.12z"/>
	<path fill-rule="evenodd" clip-rule="evenodd" fill="#FFFFFF" d="M167.28,93.398c8.43,9.166,7.857,23.416-1.28,31.839
		c-9.138,8.414-23.381,7.815-31.818-1.345c-8.43-9.162-7.859-23.419,1.286-31.827C144.604,83.639,158.847,84.245,167.28,93.398
		L167.28,93.398z"/>
	<path fill-rule="evenodd" clip-rule="evenodd" fill="#3D3D3D" d="M163.433,96.951c6.473,7.025,6.035,17.961-0.982,24.426
		c-7.019,6.459-17.946,5.998-24.416-1.039c-6.469-7.022-6.033-17.962,0.984-24.42C146.026,89.453,156.966,89.917,163.433,96.951
		L163.433,96.951z"/>
	<path fill-rule="evenodd" clip-rule="evenodd" d="M156.501,103.327c2.946,3.2,2.745,8.174-0.446,11.109
		c-3.187,2.936-8.152,2.725-11.096-0.473c-2.938-3.197-2.744-8.17,0.446-11.106C148.593,99.921,153.568,100.13,156.501,103.327
		L156.501,103.327z"/>
	<polygon fill-rule="evenodd" clip-rule="evenodd" fill="#FFFFFF" points="168.996,115.352 153.541,112.475 158.161,126.751 
		168.996,115.352 	"/>
	<path fill-rule="evenodd" clip-rule="evenodd" fill="#FFFFFF" d="M164.445,93.503c2.372,2.278,2.464,6.071,0.202,8.462
		c-2.266,2.398-6.027,2.498-8.39,0.217c-2.371-2.278-2.464-6.071-0.203-8.473C158.318,91.314,162.071,91.22,164.445,93.503
		L164.445,93.503z"/>
	<path fill-rule="evenodd" clip-rule="evenodd" fill="#FFFFFF" d="M145.875,90.926c1.572,1.497,1.64,3.969,0.151,5.537
		c-1.498,1.556-3.979,1.614-5.562,0.117c-1.572-1.497-1.638-3.969-0.15-5.537C141.811,89.488,144.303,89.429,145.875,90.926
		L145.875,90.926z"/>
	<path fill-rule="evenodd" clip-rule="evenodd" fill="#FFFFFF" d="M150.957,114.149c1.179,1.115,1.22,2.977,0.11,4.145
		c-1.119,1.181-2.971,1.222-4.14,0.104c-1.179-1.119-1.22-2.978-0.11-4.148C147.936,113.071,149.786,113.027,150.957,114.149
		L150.957,114.149z"/>
</g>
</svg>
