<?xml version="1.0" encoding="utf-8"?>
<!-- Generator: Adobe Illustrator 15.0.0, SVG Export Plug-In . SVG Version: 6.00 Build 0)  -->
<!DOCTYPE svg PUBLIC "-//W3C//DTD SVG 1.1//EN" "http://www.w3.org/Graphics/SVG/1.1/DTD/svg11.dtd">
<svg version="1.1" id="图层_1" xmlns="http://www.w3.org/2000/svg" xmlns:xlink="http://www.w3.org/1999/xlink" x="0px" y="0px"
	 width="141.402px" height="125.556px" viewBox="0 0 141.402 125.556" enable-background="new 0 0 141.402 125.556"
	 xml:space="preserve">
<g>
	<g>
		<polygon fill="#FFFFFF" stroke="#EFEFEF" stroke-miterlimit="10" points="140.201,54.844 70.701,124.846 1.201,54.844 
			140.201,54.844 		"/>
		<g>
			<g>
				<g>
					<path fill="#3B3F51" d="M100.885,90.111c-0.473,0.121-0.957,0.234-1.437,0.355c-0.271,0.136-0.688,0.136-0.957,0.24
						c-1.502,0.359-3.021,0.682-4.56,0.98c-0.857,0.164-1.718,0.329-2.589,0.473c-0.176,0.016-0.176,0.09-0.463,0.074
						c-6.14,1-12.511,1.524-19.097,1.524c-8.895,0-17.059-0.931-23.862-2.112c-0.217-0.042-0.437-0.078-0.648-0.119
						c-0.738-0.127-1.46-0.265-2.163-0.4c-0.859-0.162-1.689-0.334-2.492-0.502c-0.787-0.17-1.548-0.337-2.274-0.506
						c-0.011,0-0.022,0-0.027-0.006c-0.569-0.129-1.121-0.262-1.651-0.387c-5.258-1.272-8.799-2.452-9.932-2.85l-2.779,16.77
						c13.956,5.406,28.729,8.144,43.901,8.144c24.235,0,41.892-7.095,44.339-8.124l-3.275-16.783
						C107.671,88.13,104.316,89.199,100.885,90.111z"/>
					<path fill="#3B3F51" d="M117.208,83.404c-2.581,1.556-5.123,3.146-5.123,3.146l3.48,16.51c4.107-0.984,7.445-3.15,7.445-3.15
						s4.027-3.033,4.496-13.813C122.294,83.802,117.208,83.404,117.208,83.404z"/>
					<path fill="#3B3F51" d="M17.99,80.382c0,0-0.24,7.26,1.454,11.201c0,0-5.62,5.43-6.112,6.764c0,0,5.725,3.771,11.252,4.82
						l2.787-16.291C27.37,86.876,25.868,86.195,17.99,80.382z"/>
				</g>
				<g opacity="0.5">
					<path fill="#3B3F51" d="M19.139,91.88c-1.167,1.142-5.384,5.318-5.808,6.467c0,0,5.725,3.771,11.252,4.82l1.448-8.467
						C23.695,93.83,21.395,92.89,19.139,91.88z"/>
					<path fill="#3B3F51" d="M113.561,93.558l2.005,9.502c4.107-0.984,7.445-3.15,7.445-3.15s3.824-2.909,4.447-13.063
						C123.023,89.369,118.382,91.613,113.561,93.558z"/>
					<path fill="#3B3F51" d="M68.327,102.269c-14.452,0-28.269-2.512-40.971-7.08l-1.401,8.457
						c13.956,5.406,28.729,8.144,43.901,8.144c24.235,0,41.892-7.095,44.339-8.124l-1.875-9.605
						C98.799,99.345,83.933,102.269,68.327,102.269z"/>
				</g>
			</g>
			<g>
				<path fill="#FFFFFF" d="M120.675,87.441c2.313,0.152,4.064,2.151,3.912,4.466c-0.152,2.315-2.15,4.068-4.463,3.917
					c-2.313-0.15-4.061-2.15-3.908-4.467C116.369,89.042,118.363,87.29,120.675,87.441L120.675,87.441z"/>
				<path d="M120.552,89.339c1.264,0.082,2.223,1.176,2.141,2.443c-0.084,1.268-1.178,2.228-2.443,2.145s-2.225-1.178-2.141-2.445
					C118.193,90.215,119.285,89.255,120.552,89.339L120.552,89.339z"/>
				<polygon fill="#FFFFFF" points="123.722,90.187 121.269,91.789 123.726,93.124 123.722,90.187 				"/>
			</g>
			<g>
				<g>
					<path fill="#FFFFFF" d="M42.367,104.895c-0.037-0.067,0.213-0.659,0.345-1.134c0.132-0.473,0.226-1.235,0.418-1.45
						c0.349-0.389,1.609-0.713,2.309-1.078c1.136-0.593,2.133-1.181,3.001-1.746c0.693-0.453,1.281-0.88,1.752-1.283
						c0.275-0.236,0.466-0.45,0.572-0.623c0.074-0.121,0.125-0.253,0.149-0.391c0.032-0.182,0.019-0.346-0.042-0.495
						c-0.061-0.148-0.175-0.285-0.339-0.411c-0.165-0.127-0.37-0.243-0.618-0.348c-0.248-0.105-0.537-0.19-0.866-0.256
						c-0.452-0.09-0.934-0.151-1.45-0.183c-0.515-0.032-1.227-0.037-2.141-0.028c0.224-0.507,0.334-0.758,0.556-1.266
						c0.119-0.252,0.349-1.313,0.596-1.473c0.589-0.38,3.289,0.274,4.739,0.536c0.662,0.119,1.286,0.29,1.875,0.508
						c0.588,0.217,1.103,0.499,1.546,0.855c0.442,0.356,0.763,0.741,0.956,1.153s0.264,0.841,0.206,1.28
						c-0.038,0.289-0.111,0.573-0.222,0.844c-0.106,0.258-0.286,0.563-0.535,0.897c-0.31,0.417-0.692,0.82-1.129,1.205
						c-0.652,0.574-1.402,1.163-2.259,1.74c-0.813,0.548-1.801,1.143-2.966,1.778c0.457,0.089,0.685,0.131,1.143,0.215
						c0.271,0.048,0.807,0.139,1.611,0.256c0.805,0.117,1.364,0.187,1.679,0.22c0.316,0.033,1.125,0.021,1.17,0.079
						c0.045,0.058-0.146,0.669-0.253,1.115s-0.229,1.542-0.374,1.643c-0.468,0.324-3.622-0.565-5.548-0.926
						C45.924,105.696,42.516,105.164,42.367,104.895z"/>
					<path fill="#FFFFFF" d="M64.05,94.774c1.026,0.06,1.941,0.297,2.759,0.723s1.454,1.124,1.916,2.097s0.697,2.111,0.688,3.424
						c-0.007,1.027-0.163,2.045-0.481,3.05c-0.319,1.006-0.756,1.812-1.311,2.412c-0.553,0.601-1.287,1.053-2.194,1.353
						c-0.908,0.3-1.877,0.42-2.896,0.354c-0.868-0.056-1.676-0.242-2.412-0.552c-0.737-0.311-1.363-0.775-1.873-1.389
						c-0.509-0.612-0.829-1.31-0.966-2.094s-0.152-1.609-0.053-2.473c0.12-1.046,0.388-2.054,0.794-3.029s0.9-1.755,1.481-2.341
						c0.581-0.586,1.268-1.001,2.065-1.245C62.366,94.82,63.191,94.724,64.05,94.774z M63.819,97.583
						c-0.307-0.018-0.587,0.055-0.841,0.216c-0.309,0.196-0.563,0.476-0.762,0.833c-0.241,0.433-0.441,0.938-0.594,1.511
						c-0.168,0.629-0.286,1.323-0.346,2.089c-0.053,0.67-0.028,1.231,0.077,1.682s0.289,0.806,0.555,1.066
						c0.266,0.26,0.59,0.402,0.968,0.426c0.21,0.013,0.419-0.016,0.623-0.087c0.204-0.07,0.423-0.223,0.655-0.458
						c0.233-0.235,0.444-0.581,0.632-1.036s0.328-0.931,0.425-1.432c0.097-0.5,0.156-1.012,0.178-1.53
						c0.046-1.077-0.078-1.885-0.363-2.425S64.343,97.613,63.819,97.583z"/>
					<path fill="#FFFFFF" d="M75.458,108.063c-0.179-0.176,0.094-2.578,0.127-4.775c0.032-2.196,0-4.713,0-4.713
						c-0.031-0.017-0.466,0.31-0.691,0.463c-0.226,0.152-1.479,1.068-1.479,1.068c-0.047-0.025,0.041-1.175,0.051-1.901
						s-0.079-1.459-0.001-1.602c0.089-0.163,0.69-0.427,1.095-0.697s0.647-0.442,0.736-0.513c0.09-0.071,0.255-0.286,0.399-0.343
						c0.352-0.139,1.227-0.047,1.969-0.1c0.702-0.05,1.421-0.115,2.154-0.195c0.001,0.852-0.002,1.276-0.004,2.128
						c0.084,2.818,0.121,4.23,0.183,7.051c0.047,1.034,0.069,1.553,0.114,2.587c0.042,0.493,0.063,0.74,0.105,1.233
						c-0.609,0.039-1.35,0.091-2.224,0.148C76.976,107.97,75.546,108.15,75.458,108.063z"/>
					<path fill="#FFFFFF" d="M90.986,106.34c-0.111-0.086-0.081-1.168-0.143-1.799c-0.063-0.633-0.117-1.137-0.162-1.51
						c-0.451,0.085-0.677,0.128-1.128,0.209c-0.34,0.058-0.509,0.084-0.849,0.14c-1.557,0.276-2.336,0.404-3.9,0.627
						c-0.003-0.118-0.003-0.18-0.006-0.298c-0.001-0.069-0.018-0.276-0.047-0.617c-0.059-0.721-0.09-1.085-0.149-1.806
						c-0.015-0.165-0.084-0.406-0.057-0.521c0.156-0.654,1.241-1.932,1.942-3.214c0.7-1.28,1.316-3.489,1.88-3.935
						c0.397-0.314,1.854-0.314,2.63-0.471c0.73-0.146,2.119-0.58,2.243-0.496c0.289,0.197,0.386,2.638,0.602,3.905
						s0.39,2.776,0.525,2.868c0.083,0.056,0.703-0.135,1.136-0.234c0.341-0.078,0.537-0.129,0.589-0.145s0.347-0.137,0.382-0.116
						c0.17,0.102,0.324,1.529,0.521,2.35c0.042,0.174,0.063,0.262,0.105,0.436c-0.415,0.073-1.022,0.204-1.822,0.382
						c-0.168,0.041-0.252,0.062-0.42,0.102c0.073,0.613,0.813,2.952,0.615,3.254c-0.112,0.171-1.42,0.285-2.17,0.434
						C92.604,106.024,91.104,106.432,90.986,106.34z M90.785,100.295c-0.227-1.705-0.345-2.555-0.578-4.258
						c-0.308,0.724-0.568,1.3-0.777,1.729c-0.21,0.431-0.366,0.737-0.465,0.921c-0.449,0.851-0.677,1.274-1.146,2.12
						C89.006,100.62,89.6,100.515,90.785,100.295z"/>
				</g>
			</g>
		</g>
	</g>
	<g>
		<ellipse fill="#7DCEEE" cx="78.453" cy="6.715" rx="6.79" ry="6.715"/>
		<ellipse fill="#7DCEEE" cx="68.24" cy="20.158" rx="1.458" ry="1.44"/>
		<path fill="#7DCEEE" d="M89.785,70.011L76.091,51.208V35.035h2.547c0,0,2.941,0.952,2.941-2.635v-2.91
			c0,0-0.171-2.518-3.113-2.518l-15.673,0.112c0,0-2.941,0.95-2.941,2.517V32.4c0,0-0.228,2.579,2.714,2.579h2.831v16.397
			L51.532,70.233c0,0-11.627,13.041,0.425,13.21h37.656C89.613,83.443,101.836,84.478,89.785,70.011z M66.969,52.028V33.792h-3.708
			c-2.084,0-1.923-1.83-1.923-1.83v-1.987c0-1.112,2.084-1.787,2.084-1.787l14.794-0.08c2.085,0,2.207,1.787,2.207,1.787v2.066
			c0,2.545-2.086,1.87-2.086,1.87h-3.79v18.075l8.89,12.208H58.08L66.969,52.028z"/>
		<ellipse fill="#7DCEEE" cx="60.645" cy="12.226" rx="4.158" ry="4.114"/>
	</g>
	<path fill="#FFFFFF" d="M66.969,52.028V33.792h-3.708c-2.084,0-1.923-1.83-1.923-1.83v-1.987c0-1.112,2.084-1.787,2.084-1.787
		l14.794-0.08c2.085,0,2.207,1.787,2.207,1.787v2.066c0,2.545-2.086,1.87-2.086,1.87h-3.79v18.075l8.89,12.208H58.08L66.969,52.028z
		"/>
	<path opacity="0.15" fill="#61B8DC" d="M70.701,27.028l-7.908,0.057c0,0-2.941,0.95-2.941,2.517V32.4c0,0-0.228,2.579,2.714,2.579
		h2.831v16.397L51.532,70.233c0,0-11.627,13.041,0.425,13.21h18.744V27.028z"/>
</g>
</svg>
