<?xml version="1.0" encoding="utf-8"?>
<!-- Generator: Adobe Illustrator 17.0.0, SVG Export Plug-In . SVG Version: 6.00 Build 0)  -->
<!DOCTYPE svg PUBLIC "-//W3C//DTD SVG 1.1//EN" "http://www.w3.org/Graphics/SVG/1.1/DTD/svg11.dtd">
<svg version="1.1" id="图层_1" xmlns="http://www.w3.org/2000/svg" xmlns:xlink="http://www.w3.org/1999/xlink" x="0px" y="0px"
	 width="501px" height="501px" viewBox="-15.825 -18.625 501 501" enable-background="new -15.825 -18.625 501 501"
	 xml:space="preserve">
<g>
	<polygon fill="#EFEFEF" points="233.741,-14.437 340.243,170.037 446.752,354.508 233.741,354.508 20.73,354.508 127.233,170.037 	
		"/>
	<line fill="none" stroke="#73C4FB" stroke-miterlimit="10" x1="233.741" y1="-14.437" x2="233.741" y2="467.998"/>
	<circle fill="#73C4FB" cx="233.741" cy="467.998" r="9.189"/>
	<g>
		<g>
			<line fill="none" stroke="#93CE16" stroke-miterlimit="10" x1="446.742" y1="354.508" x2="28.942" y2="113.29"/>
			<circle fill="#93CE16" cx="28.942" cy="113.29" r="9.189"/>
		</g>
	</g>
	<g>
		<g>
			<line fill="none" stroke="#FFC107" stroke-miterlimit="10" x1="20.739" y1="354.508" x2="438.54" y2="113.29"/>
			<circle fill="#FFC107" cx="438.54" cy="113.29" r="9.189"/>
		</g>
	</g>
	<circle fill="#FFFFFF" cx="233.741" cy="231.653" r="104.144"/>
	<path fill="#FFFFFF" d="M233.741,143.027c-48.947,0-88.624,39.678-88.624,88.626s39.679,88.626,88.624,88.626
		s88.624-39.678,88.624-88.626S282.687,143.027,233.741,143.027z M233.741,305.576c-40.826,0-73.922-33.096-73.922-73.923
		s33.096-73.923,73.922-73.923s73.922,33.096,73.922,73.923S274.567,305.576,233.741,305.576z"/>
	<path fill="#7CD52E" d="M236.569,242.608c0,0,17.195,15.541,35.661-17.825C272.232,224.783,238.906,216.094,236.569,242.608
		L236.569,242.608z M238.033,260.456c-4.993-7.779-8.722-20.333,1.333-36.531c17.5-28.195-1.728-34.983-1.728-34.983
		s16.119,8.515-1.404,32.239c6.171-20.558-22.768-28.828-22.768-28.828c-1.69,31.54,13.984,33.634,19.251,33.451
		c-10.756,14.422-8.781,26.424-5.199,34.015c-6.878,0.537-12.129,2.945-13.003,6.279l36.311,2.588
		C250.426,265.129,245.186,261.881,238.033,260.456L238.033,260.456z"/>
	<g>
		<g>
			<defs>
				<circle id="SVGID_1_" cx="233.741" cy="231.653" r="104.144"/>
			</defs>
			<clipPath id="SVGID_2_">
				<use xlink:href="#SVGID_1_"  overflow="visible"/>
			</clipPath>
			<ellipse clip-path="url(#SVGID_2_)" fill="#3B3F51" cx="233.741" cy="493.591" rx="201.507" ry="235.244"/>
		</g>
	</g>
</g>
</svg>
